# xmcd
#
# Track frame offsets: 
#        150
#        13574
#        29098
#        46461
#        79535
#        93752
#        113400
#        131924
#        153750
#        168675
#        192138
#        228213
#        244112
#
# Disc length: 3503 seconds
#
# Revision: 0
# Processed by: cddbd v1.5.2PL0 Copyright (c) Steve Scherf et al.
# Submitted via: ExactAudioCopy v0.99pb3
#
DISCID=970dad0d
DTITLE=Little Ray And The Blue Sonics - Hot Rod Blues
DYEAR=1999
DGENRE=Blues
TTITLE0=It Can't Get Better Than This
TTITLE1=Queen Bee
TTITLE2=Everyday
TTITLE3=Hot Rod Blues
TTITLE4=Two Timin Lovin
TTITLE5=Black Widow Spider
TTITLE6=You Know That's Right
TTITLE7=Just Cal On Me
TTITLE8=Home Town Fool Around
TTITLE9=Go To The Mardi Gras
TTITLE10=Terry
TTITLE11=You Pushin Me
TTITLE12=She Makes Me Beg
EXTD=
EXTT0=
EXTT1=
EXTT2=
EXTT3=
EXTT4=
EXTT5=
EXTT6=
EXTT7=
EXTT8=
EXTT9=
EXTT10=
EXTT11=
EXTT12=
PLAYORDER=
